<svg
                        className="size-5"
                        xmlns="http://www.w3.org/2000/svg"
                        width="24"
                        height="24"
                        viewBox="0 0 24 24"
                      >
                        <path
                          fill="currentColor"
                          d="M8 9.5A1.25 1.25 0 1 0 8 12a1.25 1.25 0 0 0 0-2.5m4 0a1.25 1.25 0 1 0 0 2.5a1.25 1.25 0 0 0 0-2.5m2.75 1.25a1.25 1.25 0 1 1 2.5 0a1.25 1.25 0 0 1-2.5 0"
                        />
                        <path
                          fill="currentColor"
                          fillRule="evenodd"
                          d="M16.1 4.593a50.577 50.577 0 0 0-8.098-.04l-.193.015A4.93 4.93 0 0 0 3.25 9.483V18a.75.75 0 0 0 1.105.66l3.91-2.101a1.25 1.25 0 0 1 .593-.149h8.976c1.132 0 2.102-.81 2.305-1.923c.412-2.257.444-4.567.096-6.835l-.102-.669a2.666 2.666 0 0 0-2.408-2.252zM8.116 6.049a49.078 49.078 0 0 1 7.858.038l1.624.139c.536.046.972.453 1.053.985l.103.668a19.165 19.165 0 0 1-.09 6.339a.843.843 0 0 1-.829.692H8.858a2.75 2.75 0 0 0-1.302.328L4.75 16.746V9.483a3.43 3.43 0 0 1 3.171-3.42z"
                          clipRule="evenodd"
                        />
                      </svg>